<svg id="Слой_1" data-name="Слой 1" xmlns="http://www.w3.org/2000/svg" viewBox="0 0 464.75 53.53"><defs><style>.cls-1,.cls-2{fill:#fff;}.cls-2{stroke:#fff;stroke-miterlimit:10;}</style></defs><title>iphoneService</title><path class="cls-1" d="M509,263.59v17.68h-1.29V263.59h-6.19v-1.22h13.67v1.22Z" transform="translate(-216.1 -240.98)"/><path class="cls-1" d="M521,267.58a6.5,6.5,0,0,1,3.79,1.12,6.43,6.43,0,0,1,2.34,3,5.83,5.83,0,0,1,.35,1.6,4.2,4.2,0,0,1-.08,1.45H515.39A5.24,5.24,0,0,0,517,278.8a6.18,6.18,0,0,0,4.28,1.53,7.92,7.92,0,0,0,5-1.7l.7.75a8.73,8.73,0,0,1-5.67,2.05,7.23,7.23,0,0,1-5.17-1.91,6.57,6.57,0,0,1-2-5,6.89,6.89,0,0,1,1.93-4.93A6.58,6.58,0,0,1,521,267.58Zm0,1.14a5.47,5.47,0,0,0-3.9,1.47,5.32,5.32,0,0,0-1.68,3.66h10.88a4.26,4.26,0,0,0-.3-1.81,5.23,5.23,0,0,0-1.89-2.42A5.31,5.31,0,0,0,521.06,268.72Z" transform="translate(-216.1 -240.98)"/><path class="cls-1" d="M535.54,275.3l-5.11,6H529l5.83-7-5.56-6.54h1.45l4.89,5.64,4.81-5.64h1.45l-5.56,6.62,5.83,6.88h-1.45Z" transform="translate(-216.1 -240.98)"/><path class="cls-1" d="M556.38,281.27h-1.21v-6.21h-9.53v6.21h-1.22v-13.5h1.22v6.13h9.53v-6.13h1.21Z" transform="translate(-216.1 -240.98)"/><path class="cls-1" d="M572.18,281.27h-1.25V270l-10,11.31h-.68v-13.5h1.22v11.31l10-11.31h.68Z" transform="translate(-216.1 -240.98)"/><path class="cls-1" d="M586.38,281.27,584.24,278a11.28,11.28,0,0,0-1.93-2.5,3.63,3.63,0,0,0-2.28-.58h-2.64v6.4h-1.22v-13.5h1.22v5.94h2.26a3.62,3.62,0,0,0,2.29-.58,11.59,11.59,0,0,0,1.93-2.5l1.86-2.86h1.4l-2.29,3.46c-.43.66-.75,1.14-1,1.43a7.37,7.37,0,0,1-.77.89,3.15,3.15,0,0,1-.92.67,3.06,3.06,0,0,1,1.43.91,17.87,17.87,0,0,1,1.6,2.23l2.56,3.91Z" transform="translate(-216.1 -240.98)"/><path class="cls-1" d="M602.9,281.27H602l-.06-3.59a6.58,6.58,0,0,1-6,3.75,6.55,6.55,0,0,1-4.85-2,7,7,0,0,1,0-9.81,6.53,6.53,0,0,1,4.85-2,6.54,6.54,0,0,1,6,3.78l.06-3.59h.94Zm-6.86-1a5.69,5.69,0,0,0,5.7-5.75,5.58,5.58,0,0,0-1.67-4.1,5.67,5.67,0,0,0-8.06,0,5.88,5.88,0,0,0,0,8.19A5.46,5.46,0,0,0,596,280.27Z" transform="translate(-216.1 -240.98)"/><path class="cls-1" d="M616.27,275.47l-2.41,5.8h-1.4l7.88-18.9H621l7.86,18.9h-1.41l-2.4-5.8Zm4.4-10.64-3.92,9.42h7.83Z" transform="translate(-216.1 -240.98)"/><path class="cls-1" d="M637.19,267.58a6.55,6.55,0,0,1,4.85,2,7.07,7.07,0,0,1,0,9.81,6.57,6.57,0,0,1-4.85,2,6.18,6.18,0,0,1-3.44-1,6,6,0,0,1-2.31-2.62v8.43h-1.22V267.77h.95l.05,3.59a6.6,6.6,0,0,1,6-3.78Zm4,2.85a5.75,5.75,0,0,0-8.08,0,5.87,5.87,0,0,0,0,8.18,5.75,5.75,0,0,0,8.08,0,5.87,5.87,0,0,0,0-8.18Z" transform="translate(-216.1 -240.98)"/><path class="cls-1" d="M653.17,267.58a6.53,6.53,0,0,1,4.85,2,7,7,0,0,1,0,9.81,6.55,6.55,0,0,1-4.85,2,6.34,6.34,0,0,1-5.75-3.62v8.43h-1.21V267.77h.94l.06,3.59a6.35,6.35,0,0,1,2.4-2.74A6.49,6.49,0,0,1,653.17,267.58Zm4,2.85a5.73,5.73,0,0,0-8.07,0,5.87,5.87,0,0,0,0,8.18,5.73,5.73,0,0,0,8.07,0,5.87,5.87,0,0,0,0-8.18Z" transform="translate(-216.1 -240.98)"/><path class="cls-1" d="M663.19,281.27v-18.9h1.24v18.9Z" transform="translate(-216.1 -240.98)"/><path class="cls-1" d="M674.34,267.58a6.55,6.55,0,0,1,3.8,1.12,6.34,6.34,0,0,1,2.33,3,5.48,5.48,0,0,1,.35,1.6,3.76,3.76,0,0,1-.08,1.45h-12a5.23,5.23,0,0,0,1.63,4.06,6.2,6.2,0,0,0,4.28,1.53,7.9,7.9,0,0,0,5-1.7l.7.75a8.7,8.7,0,0,1-5.67,2.05,7.24,7.24,0,0,1-5.17-1.91,6.6,6.6,0,0,1-2-5,6.85,6.85,0,0,1,1.93-4.93A6.56,6.56,0,0,1,674.34,267.58Zm0,1.14a5.43,5.43,0,0,0-3.9,1.47,5.29,5.29,0,0,0-1.69,3.66h10.88a4,4,0,0,0-.3-1.81,5.1,5.1,0,0,0-1.89-2.42A5.27,5.27,0,0,0,674.37,268.72Z" transform="translate(-216.1 -240.98)"/><path class="cls-1" d="M223.83,245.06a3.66,3.66,0,0,1-3.94,3.64,3.67,3.67,0,1,1,.05-7.34A3.66,3.66,0,0,1,223.83,245.06Zm-7.54,30V251.58h7.3v23.48Z" transform="translate(-216.1 -240.98)"/><path class="cls-1" d="M227.28,243.14a59.14,59.14,0,0,1,9.89-.68c4.51,0,7.73.87,9.89,2.6a9.46,9.46,0,0,1,3.45,7.48,10.36,10.36,0,0,1-3,7.69c-2.5,2.35-6.19,3.4-10.51,3.4a17.9,17.9,0,0,1-2.5-.14v11.57h-7.25Zm7.25,14.69A11.43,11.43,0,0,0,237,258c3.89,0,6.29-2,6.29-5.28,0-3-2.07-4.76-5.72-4.76a12.67,12.67,0,0,0-3,.29Z" transform="translate(-216.1 -240.98)"/><path class="cls-1" d="M252.53,241h7.3v13.39h.09a8.73,8.73,0,0,1,2.88-2.4,8.16,8.16,0,0,1,3.79-.91c4.66,0,8.21,3.21,8.21,10.27v13.73h-7.29V262.15c0-3.08-1.06-5.19-3.8-5.19a3.89,3.89,0,0,0-3.65,2.55,4.67,4.67,0,0,0-.23,1.63v13.92h-7.3Z" transform="translate(-216.1 -240.98)"/><path class="cls-1" d="M301.44,263.06c0,8.59-6.09,12.53-12.38,12.53-6.87,0-12.15-4.52-12.15-12.1s5-12.43,12.53-12.43C296.64,251.06,301.44,256,301.44,263.06Zm-17,.24c0,4,1.68,7.05,4.8,7.05,2.83,0,4.66-2.83,4.66-7.05,0-3.51-1.35-7.06-4.66-7.06C285.74,256.24,284.45,259.84,284.45,263.3Z" transform="translate(-216.1 -240.98)"/><path class="cls-1" d="M303.55,259.07c0-2.92-.09-5.42-.19-7.49h6.34l.33,3.22h.15a8.58,8.58,0,0,1,7.24-3.74c4.81,0,8.41,3.17,8.41,10.08v13.92h-7.3v-13c0-3-1.06-5.09-3.7-5.09a3.89,3.89,0,0,0-3.69,2.74,4.82,4.82,0,0,0-.29,1.82v13.54h-7.3Z" transform="translate(-216.1 -240.98)"/><path class="cls-1" d="M334.9,265.65c.24,3,3.21,4.46,6.62,4.46a20.49,20.49,0,0,0,6.48-1l1,5a23.18,23.18,0,0,1-8.5,1.44c-8,0-12.52-4.61-12.52-12,0-6,3.69-12.53,11.85-12.53,7.59,0,10.47,5.9,10.47,11.71a18,18,0,0,1-.24,2.88Zm8.59-5c0-1.78-.77-4.75-4.13-4.75-3.07,0-4.32,2.78-4.51,4.75Z" transform="translate(-216.1 -240.98)"/><path class="cls-1" d="M356.32,276.43a18.6,18.6,0,0,0,8.11,2c3.36,0,5.13-1.4,5.13-3.51s-1.53-3.17-5.42-4.56c-5.38-1.87-8.88-4.85-8.88-9.55,0-5.52,4.61-9.75,12.24-9.75a19.72,19.72,0,0,1,8.26,1.64l-1.63,5.9a15.48,15.48,0,0,0-6.77-1.54c-3.17,0-4.71,1.44-4.71,3.12,0,2.07,1.83,3,6,4.56,5.72,2.12,8.4,5.09,8.4,9.65,0,5.43-4.17,10-13.05,10a21.12,21.12,0,0,1-9.17-2Z" transform="translate(-216.1 -240.98)"/><path class="cls-1" d="M385.31,274.56c.24,3,3.21,4.46,6.62,4.46a20.49,20.49,0,0,0,6.48-1l1,4.95a23.17,23.17,0,0,1-8.49,1.44c-8,0-12.53-4.61-12.53-12,0-5.95,3.69-12.53,11.85-12.53,7.59,0,10.47,5.91,10.47,11.72a18,18,0,0,1-.24,2.88Zm8.59-5c0-1.77-.77-4.75-4.13-4.75-3.07,0-4.32,2.79-4.51,4.75Z" transform="translate(-216.1 -240.98)"/><path class="cls-1" d="M402.63,268.22c0-3.46-.09-5.71-.19-7.73h6.29l.24,4.32h.19A6.89,6.89,0,0,1,415.5,260a7.28,7.28,0,0,1,1.54.1v6.86a11.12,11.12,0,0,0-2-.19c-2.69,0-4.51,1.44-5,3.7a8.29,8.29,0,0,0-.15,1.63V284h-7.3Z" transform="translate(-216.1 -240.98)"/><path class="cls-1" d="M424.76,260.49l3.17,10.9a52,52,0,0,1,1.34,5.71h.15c.38-1.92.77-3.69,1.29-5.71l3-10.9h7.68L432.68,284h-7.29l-8.55-23.48Z" transform="translate(-216.1 -240.98)"/><path class="cls-1" d="M449.91,254a3.66,3.66,0,0,1-3.93,3.65,3.67,3.67,0,1,1,0-7.34A3.65,3.65,0,0,1,449.91,254Zm-7.53,30V260.49h7.29V284Z" transform="translate(-216.1 -240.98)"/><path class="cls-1" d="M470.75,283.39a17.74,17.74,0,0,1-6.53,1.06c-7.59,0-12.44-4.61-12.44-12,0-6.87,4.71-12.49,13.45-12.49a16.74,16.74,0,0,1,5.56.92l-1.15,5.42a10,10,0,0,0-4.08-.72c-3.84,0-6.33,2.74-6.29,6.58,0,4.32,2.88,6.57,6.44,6.57a11.08,11.08,0,0,0,4.17-.72Z" transform="translate(-216.1 -240.98)"/><path class="cls-1" d="M477.47,274.56c.24,3,3.21,4.46,6.62,4.46a20.49,20.49,0,0,0,6.48-1l1,4.95a23.18,23.18,0,0,1-8.5,1.44c-8,0-12.53-4.61-12.53-12,0-5.95,3.7-12.53,11.86-12.53,7.59,0,10.47,5.91,10.47,11.72a18,18,0,0,1-.24,2.88Zm8.59-5c0-1.77-.77-4.75-4.13-4.75-3.07,0-4.32,2.79-4.51,4.75Z" transform="translate(-216.1 -240.98)"/><line class="cls-2" x1="281.4" y1="53.52" x2="281.9" y2="4.02"/></svg>